<?xml version="1.0" encoding="UTF-8"?>
<svg xmlns="http://www.w3.org/2000/svg" xmlns:xlink="http://www.w3.org/1999/xlink" width="32px" height="32px"
     viewBox="0 0 32 32" version="1.1">
    <g id="surface1">
        <path style=" stroke:none;fill-rule:nonzero;fill:rgb(7.058824%,41.960785%,30.980393%);fill-opacity:1;"
              d="M 12.003906 2.621094 C 12.007812 1.933594 12.625 1.328125 13.3125 1.335938 C 15 1.332031 16.6875 1.335938 18.375 1.332031 C 18.605469 1.332031 18.839844 1.320312 19.0625 1.394531 C 19.59375 1.550781 19.988281 2.066406 19.996094 2.621094 C 20.003906 3.308594 19.996094 3.996094 20 4.679688 C 20.398438 4.828125 20.789062 4.988281 21.171875 5.171875 C 21.652344 4.691406 22.128906 4.210938 22.609375 3.734375 C 22.976562 3.363281 23.570312 3.25 24.046875 3.453125 C 24.261719 3.535156 24.433594 3.6875 24.589844 3.847656 C 25.816406 5.078125 27.050781 6.300781 28.273438 7.535156 C 28.757812 8.015625 28.765625 8.867188 28.292969 9.359375 C 27.8125 9.851562 27.316406 10.335938 26.832031 10.828125 C 27.007812 11.210938 27.171875 11.601562 27.316406 12 C 28.023438 12.003906 28.734375 11.992188 29.441406 12.007812 C 30.105469 12.042969 30.667969 12.644531 30.664062 13.308594 C 30.667969 15.101562 30.667969 16.898438 30.664062 18.691406 C 30.671875 19.378906 30.0625 19.992188 29.375 19.996094 C 28.6875 20.003906 28.003906 19.996094 27.316406 20 C 27.171875 20.398438 27.007812 20.789062 26.832031 21.171875 C 27.316406 21.664062 27.8125 22.148438 28.296875 22.640625 C 28.792969 23.15625 28.746094 24.058594 28.214844 24.53125 C 26.964844 25.777344 25.71875 27.03125 24.464844 28.273438 C 23.984375 28.753906 23.136719 28.769531 22.644531 28.296875 C 22.152344 27.8125 21.664062 27.316406 21.171875 26.828125 C 20.789062 27.011719 20.398438 27.171875 20 27.320312 C 19.996094 28.007812 20.003906 28.695312 19.996094 29.382812 C 19.992188 30.066406 19.375 30.671875 18.6875 30.664062 C 16.894531 30.667969 15.101562 30.667969 13.308594 30.664062 C 12.621094 30.667969 12.007812 30.066406 12.003906 29.378906 C 11.996094 28.691406 12.003906 28.003906 12 27.316406 C 11.601562 27.171875 11.210938 27.003906 10.828125 26.832031 C 10.335938 27.316406 9.851562 27.8125 9.359375 28.296875 C 8.867188 28.765625 8.015625 28.757812 7.535156 28.277344 C 6.261719 27.003906 4.992188 25.734375 3.71875 24.460938 C 3.242188 23.980469 3.234375 23.132812 3.703125 22.644531 C 4.1875 22.148438 4.683594 21.667969 5.171875 21.171875 C 4.992188 20.789062 4.828125 20.398438 4.683594 20 C 3.996094 19.996094 3.308594 20.003906 2.625 19.996094 C 1.9375 19.992188 1.328125 19.375 1.335938 18.6875 C 1.332031 17 1.335938 15.3125 1.332031 13.625 C 1.332031 13.394531 1.320312 13.164062 1.390625 12.945312 C 1.546875 12.410156 2.066406 12.007812 2.621094 12.003906 C 3.308594 11.996094 3.996094 12.003906 4.683594 12 C 4.828125 11.601562 4.992188 11.210938 5.171875 10.828125 C 4.683594 10.332031 4.1875 9.851562 3.703125 9.355469 C 3.230469 8.863281 3.242188 8.015625 3.726562 7.535156 C 4.984375 6.273438 6.246094 5.015625 7.503906 3.753906 C 7.855469 3.390625 8.414062 3.257812 8.886719 3.425781 C 9.105469 3.496094 9.296875 3.632812 9.457031 3.796875 C 9.914062 4.253906 10.371094 4.710938 10.828125 5.167969 C 11.210938 4.996094 11.601562 4.828125 12 4.683594 C 12.003906 3.996094 11.996094 3.308594 12.003906 2.621094 M 16.773438 10.808594 C 15.441406 13.921875 14.105469 17.03125 12.773438 20.140625 C 13.59375 20.488281 14.410156 20.839844 15.226562 21.191406 C 16.558594 18.082031 17.890625 14.96875 19.226562 11.859375 C 18.410156 11.507812 17.59375 11.152344 16.773438 10.808594 M 10.390625 11.058594 C 9.054688 12.394531 7.71875 13.730469 6.382812 15.066406 C 5.890625 15.542969 5.875 16.40625 6.351562 16.898438 C 7.695312 18.25 9.046875 19.59375 10.390625 20.941406 C 11.019531 20.316406 11.648438 19.683594 12.277344 19.058594 C 11.257812 18.035156 10.238281 17.019531 9.21875 16 C 10.238281 14.980469 11.257812 13.960938 12.277344 12.941406 C 11.648438 12.316406 11.019531 11.683594 10.390625 11.058594 M 19.722656 12.941406 C 20.746094 13.960938 21.761719 14.980469 22.78125 16 C 21.761719 17.019531 20.746094 18.039062 19.726562 19.054688 C 20.351562 19.6875 20.984375 20.3125 21.609375 20.941406 C 22.945312 19.605469 24.285156 18.269531 25.621094 16.933594 C 26.121094 16.441406 26.121094 15.558594 25.621094 15.070312 C 24.285156 13.730469 22.945312 12.394531 21.609375 11.058594 C 20.980469 11.683594 20.351562 12.3125 19.722656 12.941406 Z M 19.722656 12.941406 "/>
        <path style=" stroke:none;fill-rule:nonzero;fill:rgb(100%,100%,100%);fill-opacity:1;"
              d="M 16.773438 10.808594 C 17.59375 11.152344 18.410156 11.507812 19.226562 11.859375 C 17.890625 14.96875 16.558594 18.082031 15.226562 21.191406 C 14.410156 20.839844 13.59375 20.488281 12.773438 20.140625 C 14.105469 17.03125 15.441406 13.921875 16.773438 10.808594 Z M 16.773438 10.808594 "/>
        <path style=" stroke:none;fill-rule:nonzero;fill:rgb(100%,100%,100%);fill-opacity:1;"
              d="M 10.390625 11.058594 C 11.019531 11.683594 11.648438 12.316406 12.277344 12.941406 C 11.257812 13.960938 10.238281 14.980469 9.21875 16 C 10.238281 17.019531 11.257812 18.035156 12.277344 19.058594 C 11.648438 19.683594 11.019531 20.316406 10.390625 20.941406 C 9.046875 19.59375 7.695312 18.25 6.351562 16.898438 C 5.875 16.40625 5.890625 15.542969 6.382812 15.066406 C 7.71875 13.730469 9.054688 12.394531 10.390625 11.058594 Z M 10.390625 11.058594 "/>
        <path style=" stroke:none;fill-rule:nonzero;fill:rgb(100%,100%,100%);fill-opacity:1;"
              d="M 19.722656 12.941406 C 20.351562 12.3125 20.980469 11.683594 21.609375 11.058594 C 22.945312 12.394531 24.285156 13.730469 25.621094 15.070312 C 26.121094 15.558594 26.121094 16.441406 25.621094 16.933594 C 24.285156 18.269531 22.945312 19.605469 21.609375 20.941406 C 20.984375 20.3125 20.351562 19.6875 19.726562 19.054688 C 20.746094 18.039062 21.761719 17.019531 22.78125 16 C 21.761719 14.980469 20.746094 13.960938 19.722656 12.941406 Z M 19.722656 12.941406 "/>
    </g>
</svg>
